<?xml version="1.0" standalone="no"?>
<!DOCTYPE svg PUBLIC "-//W3C//DTD SVG 20010904//EN"
 "http://www.w3.org/TR/2001/REC-SVG-20010904/DTD/svg10.dtd">
<svg version="1.0" xmlns="http://www.w3.org/2000/svg"
 width="400.000000pt" height="100.000000pt" viewBox="0 0 400.000000 100.000000"
 preserveAspectRatio="xMidYMid meet">

<g transform="translate(0.000000,100.000000) scale(0.100000,-0.100000)"
fill="#000000" stroke="none">
<path d="M2344 950 c-47 -24 -132 -104 -175 -167 -17 -24 -50 -80 -74 -125
-48 -90 -43 -92 -65 23 -10 54 -55 157 -83 192 -13 15 -21 16 -63 7 -150 -34
-243 -117 -259 -230 -8 -60 18 -115 55 -115 34 0 38 30 9 68 -29 40 -27 82 8
130 29 41 111 94 152 99 51 6 130 -201 116 -302 -9 -69 -55 -232 -72 -258 -8
-13 -28 -28 -44 -34 -16 -5 -29 -13 -29 -17 0 -10 247 -23 278 -15 12 4 22 12
22 20 0 10 -14 12 -65 7 -64 -6 -65 -5 -65 18 0 34 45 196 74 268 56 138 187
320 257 356 15 8 41 15 57 15 17 0 40 8 52 18 19 16 21 22 11 40 -15 27 -44
28 -97 2z"/>
<path d="M745 904 c-22 -6 -81 -16 -131 -22 -139 -16 -210 -62 -234 -153 -9
-33 -8 -45 5 -65 32 -49 74 -18 55 40 -13 41 4 85 45 112 23 15 162 38 192 32
9 -2 -7 -30 -48 -83 -33 -44 -115 -161 -182 -260 -145 -218 -190 -277 -252
-334 -45 -41 -49 -43 -93 -37 -63 8 -90 -15 -56 -48 36 -37 124 -6 196 67 22
23 74 90 115 150 l75 107 104 0 104 0 -6 -47 c-4 -27 -14 -72 -24 -100 l-17
-53 114 0 c86 0 113 3 113 13 0 9 -11 12 -32 9 -18 -2 -44 1 -58 6 -22 8 -24
14 -22 53 5 70 61 508 73 567 6 30 9 55 7 56 -1 1 -21 -3 -43 -10z m-67 -216
c-9 -57 -20 -136 -24 -175 l-7 -73 -99 0 -99 0 97 143 c92 133 144 207 148
207 1 0 -6 -46 -16 -102z"/>
<path d="M2815 904 c-22 -6 -81 -16 -131 -22 -139 -16 -210 -62 -234 -153 -9
-33 -8 -45 5 -65 32 -49 74 -18 55 40 -13 41 4 85 45 112 23 15 162 38 192 32
9 -2 -7 -30 -48 -83 -33 -44 -115 -161 -182 -260 -145 -218 -190 -277 -252
-334 -45 -41 -49 -43 -93 -37 -63 8 -90 -15 -56 -48 36 -37 124 -6 196 67 22
23 74 90 115 150 l75 107 104 0 104 0 -6 -47 c-4 -27 -14 -72 -24 -100 l-17
-53 114 0 c86 0 113 3 113 13 0 9 -11 12 -32 9 -18 -2 -44 1 -58 6 -22 8 -24
14 -22 53 5 70 61 508 73 567 6 30 9 55 7 56 -1 1 -21 -3 -43 -10z m-67 -216
c-9 -57 -20 -136 -24 -175 l-7 -73 -99 0 -99 0 97 143 c92 133 144 207 148
207 1 0 -6 -46 -16 -102z"/>
<path d="M3780 898 c-67 -34 -109 -124 -165 -351 -23 -98 -45 -180 -47 -183
-6 -6 -134 378 -152 455 -8 34 -16 65 -18 67 -3 2 -49 -3 -104 -11 -180 -27
-261 -90 -270 -211 -6 -72 10 -109 46 -109 32 0 38 31 15 76 -35 66 15 154
103 183 56 18 132 31 132 22 0 -3 -13 -69 -30 -146 -90 -427 -172 -563 -280
-470 -40 33 -52 36 -70 15 -33 -39 40 -91 117 -82 115 13 159 85 237 392 l53
210 62 -190 c55 -171 132 -368 150 -387 4 -4 21 57 39 136 74 330 136 511 182
536 14 8 41 10 75 5 41 -5 54 -3 66 11 12 14 10 19 -10 35 -31 25 -77 24 -131
-3z"/>
<path d="M1213 866 c-206 -52 -329 -220 -283 -387 12 -42 51 -82 76 -77 32 6
27 37 -10 78 -31 34 -36 47 -36 87 0 129 140 253 307 270 72 8 117 -3 154 -37
29 -28 31 -34 27 -85 -5 -62 -37 -106 -95 -131 -34 -15 -113 -19 -113 -6 0 4
11 50 25 102 14 52 25 98 25 101 0 3 -30 -3 -67 -12 -38 -10 -70 -18 -73 -19
-3 -1 5 -5 18 -11 16 -6 22 -15 19 -26 -3 -10 -27 -103 -53 -208 -40 -157 -53
-195 -75 -218 -15 -15 -36 -27 -48 -27 -19 0 -51 -24 -51 -39 0 -9 254 -23
275 -15 31 12 13 24 -35 24 -27 0 -50 1 -50 3 0 1 18 67 39 147 26 98 43 146
53 148 11 2 26 -31 56 -125 75 -233 165 -341 296 -359 83 -12 161 35 154 92
-5 42 -38 39 -60 -6 -22 -43 -44 -60 -77 -60 -71 0 -139 85 -201 255 -22 61
-50 130 -61 154 -21 45 -16 60 19 61 7 0 32 10 55 21 149 75 171 233 40 291
-57 25 -179 32 -250 14z"/>
</g>
</svg>
